<svg width="127" height="126" viewBox="0 0 127 126" fill="none" xmlns="http://www.w3.org/2000/svg">
  <circle cx="63.5" cy="63" r="62.5" fill="url(#gradient)" />
  <path d="M52 45C52 41.6863 54.6863 39 58 39C61.3137 39 64 41.6863 64 45V61C64 65.9706 59.9706 70 55 70C50.0294 70 46 65.9706 46 61V54H49V61C49 64.3137 51.6863 67 55 67C58.3137 67 61 64.3137 61 61V45C61 42.7909 59.2091 41 57 41C54.7909 41 53 42.7909 53 45V50H52V45Z" fill="#577CFF" />
  <path d="M69 45C69 41.6863 71.6863 39 75 39C78.3137 39 81 41.6863 81 45V61C81 65.9706 77.9706 70 73 70C68.0294 70 64 65.9706 64 61V54H67V61C67 64.3137 69.6863 67 73 67C76.3137 67 79 64.3137 79 61V45C79 42.7909 77.2091 41 75 41C72.7909 41 71 42.7909 71 45V50H69V45Z" fill="#577CFF" />
  <path d="M55 70H73V74C73 79.5228 68.5228 84 63 84C57.4772 84 53 79.5228 53 74V70H55Z" fill="#B9D7E8" />
  <path d="M63 92C67.4183 92 71 88.4183 71 84H55C55 88.4183 58.5817 92 63 92Z" fill="#577CFF" />
  <defs>
    <linearGradient id="gradient" x1="63.5" y1="0" x2="63.5" y2="126" gradientUnits="userSpaceOnUse">
      <stop stop-color="#AFC1DC" />
      <stop offset="1" stop-color="#E2E5ED" />
    </linearGradient>
  </defs>
</svg>
