<?xml version="1.0" encoding="UTF-8"?>
<svg version="1.1" xmlns="http://www.w3.org/2000/svg" width="411" height="411">
<path d="M0 0 C5.80218923 -0.44322279 9.39621196 1.04327112 14.0546875 4.484375 C17.98278887 8.20058709 19.27631751 12.97616509 19.9375 18.265625 C19.9375 20.59895833 19.9375 22.93229167 19.9375 25.265625 C20.2675 25.595625 20.5975 25.925625 20.9375 26.265625 C21.01008946 28.45201953 21.02123783 30.64062889 21 32.828125 C20.99097656 34.02566406 20.98195313 35.22320312 20.97265625 36.45703125 C20.96105469 37.38386719 20.94945313 38.31070313 20.9375 39.265625 C20.2775 39.265625 19.6175 39.265625 18.9375 39.265625 C18.64875 40.379375 18.36 41.493125 18.0625 42.640625 C16.9375 46.265625 16.9375 46.265625 14.9375 48.265625 C14.77072718 51.84906476 14.77072718 51.84906476 14.9375 55.265625 C16.113125 55.430625 17.28875 55.595625 18.5 55.765625 C23.33547932 56.83931769 27.50423875 58.81549006 31.875 61.078125 C32.53765869 61.40941406 33.20031738 61.74070313 33.88305664 62.08203125 C36.66404235 63.57306109 38.64458037 64.77883659 40.2890625 67.51171875 C41.14740902 71.15710609 41.79830592 74.81764019 42.375 78.515625 C43.47147537 85.27903317 43.47147537 85.27903317 45.625 91.765625 C46.9375 96.265625 46.9375 96.265625 46.9375 113.265625 C15.2575 113.265625 -16.4225 113.265625 -49.0625 113.265625 C-49.78489033 104.59694104 -50.14623172 96.726632 -49.8125 88.140625 C-49.78542969 87.03847656 -49.75835937 85.93632813 -49.73046875 84.80078125 C-49.23082279 71.21363453 -49.23082279 71.21363453 -46.0625 65.265625 C-43.49565877 63.3953615 -41.98880748 62.52631727 -39.125 61.515625 C-37.7743342 60.95801218 -36.42407895 60.39940395 -35.07421875 59.83984375 C-34.40052246 59.57606934 -33.72682617 59.31229492 -33.03271484 59.04052734 C-22.08969473 54.79137527 -22.08969473 54.79137527 -14.734375 46.09765625 C-13.89034327 44.1214221 -13.89034327 44.1214221 -14.0625 41.265625 C-15.7125 40.935625 -17.3625 40.605625 -19.0625 40.265625 C-20.64157394 36.1205559 -21.5563728 32.7104802 -21.0625 28.265625 C-19.5625 26.390625 -19.5625 26.390625 -18.0625 25.265625 C-18.3925 24.275625 -18.7225 23.285625 -19.0625 22.265625 C-19.85362287 15.90273676 -19.32609678 11.16543205 -15.55078125 5.890625 C-11.26829221 1.21473146 -5.93989803 0.76498687 0 0 Z " fill="#10181E" transform="translate(61.0625,5.734375)"/>
<path d="M0 0 C5.80218923 -0.44322279 9.39621196 1.04327112 14.0546875 4.484375 C17.98278887 8.20058709 19.27631751 12.97616509 19.9375 18.265625 C19.9375 20.59895833 19.9375 22.93229167 19.9375 25.265625 C20.2675 25.595625 20.5975 25.925625 20.9375 26.265625 C21.01008946 28.45201953 21.02123783 30.64062889 21 32.828125 C20.99097656 34.02566406 20.98195312 35.22320312 20.97265625 36.45703125 C20.96105469 37.38386719 20.94945312 38.31070313 20.9375 39.265625 C20.2775 39.265625 19.6175 39.265625 18.9375 39.265625 C18.69 40.296875 18.4425 41.328125 18.1875 42.390625 C17.39850594 45.20282526 16.63994455 46.70265956 14.9375 49.203125 C10.97516084 55.27045685 10.71438637 61.1294769 10.96484375 68.1640625 C10.9375 70.265625 10.9375 70.265625 9.9375 72.265625 C7.984375 71.5546875 7.984375 71.5546875 5.9375 70.265625 C5.328125 68.1015625 5.328125 68.1015625 5.1875 65.640625 C5.13078125 64.82335937 5.0740625 64.00609375 5.015625 63.1640625 C4.98984375 62.53757813 4.9640625 61.91109375 4.9375 61.265625 C4.2775 61.265625 3.6175 61.265625 2.9375 61.265625 C2.9375 60.605625 2.9375 59.945625 2.9375 59.265625 C2.2775 58.935625 1.6175 58.605625 0.9375 58.265625 C1.9275 57.605625 2.9175 56.945625 3.9375 56.265625 C4.2675 55.605625 4.5975 54.945625 4.9375 54.265625 C3.266875 54.08 3.266875 54.08 1.5625 53.890625 C-2.0625 53.265625 -2.0625 53.265625 -4.0625 51.265625 C-6.13124034 50.6231015 -6.13124034 50.6231015 -8.0625 50.265625 C-7.4025 51.585625 -6.7425 52.905625 -6.0625 54.265625 C-9.46386289 52.88650097 -10.75855565 51.63950641 -12.3125 48.328125 C-12.64765625 47.63847656 -12.9828125 46.94882812 -13.328125 46.23828125 C-14.0625 44.265625 -14.0625 44.265625 -14.0625 41.265625 C-15.7125 40.935625 -17.3625 40.605625 -19.0625 40.265625 C-20.64157394 36.1205559 -21.5563728 32.7104802 -21.0625 28.265625 C-19.5625 26.390625 -19.5625 26.390625 -18.0625 25.265625 C-18.3925 24.275625 -18.7225 23.285625 -19.0625 22.265625 C-19.85362287 15.90273676 -19.32609678 11.16543205 -15.55078125 5.890625 C-11.26829221 1.21473146 -5.93989803 0.76498687 0 0 Z " fill="#946B59" transform="translate(61.0625,5.734375)"/>
<path d="M0 0 C5.80218923 -0.44322279 9.39621196 1.04327112 14.0546875 4.484375 C17.97733729 8.19542957 19.29305268 12.98115697 19.9375 18.265625 C20.00757623 20.93853247 19.98283819 23.59067201 19.9375 26.265625 C18.9475 26.595625 17.9575 26.925625 16.9375 27.265625 C15.7324754 24.8555758 15.76443982 23.07583758 15.625 20.390625 C15.30724971 17.29367848 15.01920348 15.42160438 13.5625 12.640625 C9.26440338 10.38924106 4.68531948 10.66516548 -0.0625 11.265625 C-1.40541173 11.91278056 -2.73939471 12.57888297 -4.0625 13.265625 C-6.38671875 13.64453125 -6.38671875 13.64453125 -8.75 13.828125 C-11.70431288 13.86068807 -11.70431288 13.86068807 -14.0625 15.265625 C-14.25566713 17.29387991 -14.44575788 19.32286421 -14.5859375 21.35546875 C-15.0625 23.265625 -15.0625 23.265625 -18.0625 25.265625 C-19.74083105 20.23063184 -20.10874193 14.95338445 -18.15625 9.9375 C-15.56371105 5.45041336 -13.07232092 3.00372614 -8.0625 1.265625 C-5.36813498 0.60700244 -2.74303669 0.35326988 0 0 Z " fill="#1C1916" transform="translate(61.0625,5.734375)"/>
<path d="M0 0 C1.73056641 -0.04253906 1.73056641 -0.04253906 3.49609375 -0.0859375 C6.5625 0.375 6.5625 0.375 8.4609375 2.1640625 C10.01183384 5.27685445 9.7598913 7.95355088 9.5625 11.375 C8.593125 11.849375 7.62375 12.32375 6.625 12.8125 C3.75772563 14.07693947 3.75772563 14.07693947 2.5625 15.375 C-0.9375 15.5 -0.9375 15.5 -4.4375 15.375 C-4.7675 15.045 -5.0975 14.715 -5.4375 14.375 C-7.29037502 14.30273498 -9.14583878 14.2911878 -11 14.3125 C-12.01191406 14.32152344 -13.02382813 14.33054687 -14.06640625 14.33984375 C-14.84886719 14.35144531 -15.63132813 14.36304688 -16.4375 14.375 C-16.5625 6.75 -16.5625 6.75 -15.4375 3.375 C-14.32375 3.25125 -13.21 3.1275 -12.0625 3 C-7.18876573 2.15970099 -5.33437466 0.05946906 0 0 Z " fill="#CA977A" transform="translate(64.4375,16.625)"/>
<path d="M0 0 C9.72291022 -0.76625387 9.72291022 -0.76625387 14.125 1.875 C16.39267001 5.65445002 16.55988905 8.44599449 16.56640625 12.79296875 C16.70949219 13.52128906 16.85257813 14.24960937 17 15 C18.94253407 16.35502648 18.94253407 16.35502648 21 17 C17.61416198 20.13107836 15.28890538 20.33550778 10.75 20.1875 C9.67234375 20.16042969 8.5946875 20.13335937 7.484375 20.10546875 C6.66453125 20.07066406 5.8446875 20.03585938 5 20 C4.67 19.01 4.34 18.02 4 17 C3.34 17 2.68 17 2 17 C1.67 18.32 1.34 19.64 1 21 C-8.41002278 21.3690205 -8.41002278 21.3690205 -13 19 C-13 19.99 -13 20.98 -13 22 C-13.99 22 -14.98 22 -16 22 C-16.33 21.34 -16.66 20.68 -17 20 C-19.01669827 18.86649466 -19.01669827 18.86649466 -21 18 C-20.36320312 17.7834375 -19.72640625 17.566875 -19.0703125 17.34375 C-16.74859134 16.15432516 -16.74859134 16.15432516 -16.2421875 13.46875 C-16.12101562 12.4890625 -15.99984375 11.509375 -15.875 10.5 C-15.19033233 5.19033233 -15.19033233 5.19033233 -13 3 C-10.31160615 2.73008094 -7.70858064 2.91262643 -5 3 C-5 3.33 -5 3.66 -5 4 C-7.31 4 -9.62 4 -12 4 C-12.33 7.63 -12.66 11.26 -13 15 C-12.01 14.67 -11.02 14.34 -10 14 C-7.3071504 13.82187376 -4.70558632 13.91272302 -2 14 C-1.67 14.33 -1.34 14.66 -1 15 C4.08566831 15.39120525 6.81038403 14.87287952 11 12 C11.66 12 12.32 12 13 12 C12.87625 10.72125 12.7525 9.4425 12.625 8.125 C12.52058594 7.04605469 12.52058594 7.04605469 12.4140625 5.9453125 C12.13625251 3.77331755 12.13625251 3.77331755 10 2 C7.56747339 1.53837573 7.56747339 1.53837573 4.875 1.375 C3.96492188 1.30023437 3.05484375 1.22546875 2.1171875 1.1484375 C1.06917969 1.07496094 1.06917969 1.07496094 0 1 C0 0.67 0 0.34 0 0 Z " fill="#7B5843" transform="translate(61,16)"/>
<path d="M0 0 C0.33 0 0.66 0 1 0 C2.21068498 5.50311355 1.92618831 8.19269064 -1 13 C-1.515625 13.78375 -2.03125 14.5675 -2.5625 15.375 C-5.86658447 21.40854556 -6.21211223 27.17284784 -5.97265625 33.8984375 C-6 36 -6 36 -7 38 C-8.953125 37.2890625 -8.953125 37.2890625 -11 36 C-11.609375 33.8359375 -11.609375 33.8359375 -11.75 31.375 C-11.80671875 30.55773437 -11.8634375 29.74046875 -11.921875 28.8984375 C-11.94765625 28.27195312 -11.9734375 27.64546875 -12 27 C-12.66 27 -13.32 27 -14 27 C-14 26.34 -14 25.68 -14 25 C-14.66 24.67 -15.32 24.34 -16 24 C-15.01 23.34 -14.02 22.68 -13 22 C-12.67 21.34 -12.34 20.68 -12 20 C-13.11375 19.87625 -14.2275 19.7525 -15.375 19.625 C-19 19 -19 19 -21 17 C-23.06874034 16.3574765 -23.06874034 16.3574765 -25 16 C-24.34 17.32 -23.68 18.64 -23 20 C-25.66130399 18.98244259 -26.80516056 18.33315139 -28.265625 15.8359375 C-28.59046875 15.02382813 -28.9153125 14.21171875 -29.25 13.375 C-29.58515625 12.55773438 -29.9203125 11.74046875 -30.265625 10.8984375 C-30.50796875 10.27195312 -30.7503125 9.64546875 -31 9 C-27.64403555 9.71520554 -26.40498457 10.59501543 -24 13 C-23.319375 13.165 -22.63875 13.33 -21.9375 13.5 C-20 14 -20 14 -18 17 C-15.57478506 17.58189266 -15.57478506 17.58189266 -12.875 17.6875 C-11.50988281 17.78611328 -11.50988281 17.78611328 -10.1171875 17.88671875 C-9.41851562 17.92410156 -8.71984375 17.96148437 -8 18 C-7.67 17.01 -7.34 16.02 -7 15 C-6.34 15 -5.68 15 -5 15 C-2.38793531 10.33559877 -1.23941583 5.16423262 0 0 Z " fill="#533A2A" transform="translate(78,40)"/>
<path d="M0 0 C0.66 0.33 1.32 0.66 2 1 C2 1.99 2 2.98 2 4 C6.455 4.99 6.455 4.99 11 6 C10.01 6.495 10.01 6.495 9 7 C9.226875 7.5775 9.45375 8.155 9.6875 8.75 C10 11 10 11 8.9375 13.25 C7 15 7 15 3.8125 15.25 C2.884375 15.1675 1.95625 15.085 1 15 C0.896875 15.78375 0.79375 16.5675 0.6875 17.375 C0 20 0 20 -3 22 C-3.33608711 13.94635715 -3.0517291 7.50216736 0 0 Z " fill="#0A1013" transform="translate(74,57)"/>
<path d="M0 0 C2.45354848 0.98141939 3.79646768 1.72245592 5.375 3.875 C6 6 6 6 5.125 8.25 C4.75375 8.8275 4.3825 9.405 4 10 C3.01 10 2.02 10 1 10 C1 10.99 1 11.98 1 13 C-1.95664519 14.4783226 -4.74229737 14.06032783 -8 14 C-8 13.34 -8 12.68 -8 12 C-6.5459375 11.566875 -6.5459375 11.566875 -5.0625 11.125 C-1.89335797 10.35785318 -1.89335797 10.35785318 -1 8 C-3.31 8.33 -5.62 8.66 -8 9 C-8 9.66 -8 10.32 -8 11 C-9.98 10.34 -11.96 9.68 -14 9 C-13.67 7.68 -13.34 6.36 -13 5 C-9.7 4.67 -6.4 4.34 -3 4 C-3 3.34 -3 2.68 -3 2 C-2.01 2 -1.02 2 0 2 C0 1.34 0 0.68 0 0 Z " fill="#815143" transform="translate(69,40)"/>
<path d="M0 0 C0.66 0 1.32 0 2 0 C2.33 1.32 2.66 2.64 3 4 C4.0725 3.95875 5.145 3.9175 6.25 3.875 C9.65747485 3.9885825 11.20739631 4.21273364 14 6 C14 6.99 14 7.98 14 9 C8.25 8.125 8.25 8.125 6 7 C6 7.66 6 8.32 6 9 C2.52674819 10.1577506 -0.36067448 10.06866652 -4 10 C-4 9.34 -4 8.68 -4 8 C-4.5775 8.495 -5.155 8.99 -5.75 9.5 C-8 11 -8 11 -12 11 C-12.38218767 9.34385343 -12.71395102 7.67542976 -13 6 C-11.26043342 4.26043342 -8.8063378 4.62809614 -6.4375 4.4375 C-5.42558594 4.35371094 -4.41367187 4.26992188 -3.37109375 4.18359375 C-2.58863281 4.12300781 -1.80617188 4.06242187 -1 4 C-0.67 2.68 -0.34 1.36 0 0 Z " fill="#BB8770" transform="translate(63,33)"/>
<path d="M0 0 C0 3 0 3 -1 6 C-2.65 6 -4.3 6 -6 6 C-5.67 6.66 -5.34 7.32 -5 8 C-3.10466658 8.46523063 -3.10466658 8.46523063 -0.9375 8.625 C0.361875 8.74875 1.66125 8.8725 3 9 C3 9.33 3 9.66 3 10 C2.07316406 10.13277344 1.14632812 10.26554687 0.19140625 10.40234375 C-1.00613281 10.57894531 -2.20367187 10.75554688 -3.4375 10.9375 C-4.63246094 11.11152344 -5.82742187 11.28554688 -7.05859375 11.46484375 C-9.87955676 11.68985213 -9.87955676 11.68985213 -11 13 C-13.67058851 13.14115161 -16.32432238 13.04247107 -19 13 C-19 12.67 -19 12.34 -19 12 C-17.35 12 -15.7 12 -14 12 C-14 10.35 -14 8.7 -14 7 C-12.35 7 -10.7 7 -9 7 C-9.33 6.34 -9.66 5.68 -10 5 C-12.52733235 4.34444881 -12.52733235 4.34444881 -15 4 C-15 3.01 -15 2.02 -15 1 C-9.94997778 -0.03590199 -5.12583611 -0.10251672 0 0 Z " fill="#201F1E" transform="translate(68,6)"/>
<path d="M0 0 C0.66 0 1.32 0 2 0 C2 3.96 2 7.92 2 12 C0.68 11.67 -0.64 11.34 -2 11 C-2.268125 12.0725 -2.53625 13.145 -2.8125 14.25 C-3.86227827 17.56508928 -4.74612328 19.43877646 -7 22 C-8.65 21.67 -10.3 21.34 -12 21 C-11.34 20.67 -10.68 20.34 -10 20 C-10 19.01 -10 18.02 -10 17 C-9.01 16.67 -8.02 16.34 -7 16 C-6.3121764 13.64632287 -6.3121764 13.64632287 -6 11 C-6.66 10.01 -7.32 9.02 -8 8 C-6.35 8.33 -4.7 8.66 -3 9 C-3.33 8.01 -3.66 7.02 -4 6 C-7.3 5.34 -10.6 4.68 -14 4 C-14 3.67 -14 3.34 -14 3 C-13.15695313 2.95101562 -12.31390625 2.90203125 -11.4453125 2.8515625 C-10.34960938 2.77679688 -9.25390625 2.70203125 -8.125 2.625 C-6.48917969 2.52058594 -6.48917969 2.52058594 -4.8203125 2.4140625 C-1.86953526 2.26746509 -1.86953526 2.26746509 0 0 Z " fill="#996D57" transform="translate(80,33)"/>
<path d="M0 0 C2.01822917 0.06510417 4.03645833 0.13020833 6.0546875 0.1953125 C6.0546875 0.5253125 6.0546875 0.8553125 6.0546875 1.1953125 C3.7446875 1.1953125 1.4346875 1.1953125 -0.9453125 1.1953125 C-1.2753125 4.8253125 -1.6053125 8.4553125 -1.9453125 12.1953125 C-1.2853125 12.5253125 -0.6253125 12.8553125 0.0546875 13.1953125 C-0.2753125 13.8553125 -0.6053125 14.5153125 -0.9453125 15.1953125 C-0.34203125 15.18371094 0.26125 15.17210937 0.8828125 15.16015625 C2.08164062 15.14662109 2.08164062 15.14662109 3.3046875 15.1328125 C4.48804688 15.11541016 4.48804688 15.11541016 5.6953125 15.09765625 C7.96159752 15.19145944 9.883577 15.56290187 12.0546875 16.1953125 C12.0546875 16.8553125 12.0546875 17.5153125 12.0546875 18.1953125 C2.64466472 18.564333 2.64466472 18.564333 -1.9453125 16.1953125 C-1.9453125 17.1853125 -1.9453125 18.1753125 -1.9453125 19.1953125 C-2.9353125 19.1953125 -3.9253125 19.1953125 -4.9453125 19.1953125 C-5.2753125 18.5353125 -5.6053125 17.8753125 -5.9453125 17.1953125 C-7.96201077 16.06180716 -7.96201077 16.06180716 -9.9453125 15.1953125 C-9.30851562 14.97875 -8.67171875 14.7621875 -8.015625 14.5390625 C-5.69390384 13.34963766 -5.69390384 13.34963766 -5.1875 10.6640625 C-5.06632812 9.684375 -4.94515625 8.7046875 -4.8203125 7.6953125 C-3.87823182 0.3893807 -3.87823182 0.3893807 0 0 Z " fill="#835F49" transform="translate(49.9453125,18.8046875)"/>
<path d="M0 0 C3.40312738 1.05875074 6.01353231 2.00902154 9 4 C10.65549531 4.38499891 12.3222433 4.72793135 14 5 C14 6.32 14 7.64 14 9 C13.01 9.495 13.01 9.495 12 10 C12 10.66 12 11.32 12 12 C12.66 12 13.32 12 14 12 C13.67 12.99 13.34 13.98 13 15 C13 14.34 13 13.68 13 13 C12.195625 12.62875 12.195625 12.62875 11.375 12.25 C6.30352916 9.58080482 2.51140479 7.30185455 0 2 C0 1.34 0 0.68 0 0 Z " fill="#413126" transform="translate(52,55)"/>
<path d="M0 0 C3 1.4375 3 1.4375 4.375 4.5625 C4.58125 5.51125 4.7875 6.46 5 7.4375 C4 8.4375 4 8.4375 0.5625 8.5625 C-3 8.4375 -3 8.4375 -5 7.4375 C-5 5.1275 -5 2.8175 -5 0.4375 C-3 -0.5625 -3 -0.5625 0 0 Z " fill="#D8AB92" transform="translate(63,21.5625)"/>
<path d="M0 0 C2.93359375 -0.43359375 2.93359375 -0.43359375 6.4375 -0.4375 C8.16806641 -0.46650391 8.16806641 -0.46650391 9.93359375 -0.49609375 C13 0 13 0 14.8984375 1.79296875 C16.45092843 4.9034559 16.19729804 7.58016738 16 11 C14.68 11.33 13.36 11.66 12 12 C12 9.03 12 6.06 12 3 C4.96104355 1.9647575 4.96104355 1.9647575 -2 3 C-1.34 2.01 -0.68 1.02 0 0 Z " fill="#A3755C" transform="translate(58,17)"/>
<path d="M0 0 C0.33 0.66 0.66 1.32 1 2 C2.89533342 2.46523063 2.89533342 2.46523063 5.0625 2.625 C6.361875 2.74875 7.66125 2.8725 9 3 C9 3.33 9 3.66 9 4 C7.60974609 4.19916016 7.60974609 4.19916016 6.19140625 4.40234375 C4.99386719 4.57894531 3.79632813 4.75554688 2.5625 4.9375 C1.36753906 5.11152344 0.17257813 5.28554688 -1.05859375 5.46484375 C-3.87955676 5.68985213 -3.87955676 5.68985213 -5 7 C-7.67058851 7.14115161 -10.32432238 7.04247107 -13 7 C-13 6.67 -13 6.34 -13 6 C-11.35 6 -9.7 6 -8 6 C-8 4.35 -8 2.7 -8 1 C-5.23735711 0.40267181 -2.83967231 0 0 0 Z " fill="#2B231B" transform="translate(62,12)"/>
<path d="M0 0 C0.66 0.2475 1.32 0.495 2 0.75 C2.721875 0.87375 3.44375 0.9975 4.1875 1.125 C5.0846875 1.434375 5.0846875 1.434375 6 1.75 C6.33 2.74 6.66 3.73 7 4.75 C5.8553125 4.9046875 5.8553125 4.9046875 4.6875 5.0625 C1.78105605 5.80600892 0.96433971 6.59858032 -1 8.75 C-1.66 8.75 -2.32 8.75 -3 8.75 C-3 7.1 -3 5.45 -3 3.75 C-3.99 3.42 -4.98 3.09 -6 2.75 C-2.56140351 -0.32017544 -2.56140351 -0.32017544 0 0 Z " fill="#171612" transform="translate(52,8.25)"/>
<path d="M0 0 C3.35596445 0.71520554 4.59501543 1.59501543 7 4 C7.680625 4.165 8.36125 4.33 9.0625 4.5 C11 5 11 5 13 8 C15.19454681 8.57993699 15.19454681 8.57993699 17.625 8.6875 C18.44226563 8.75324219 19.25953125 8.81898437 20.1015625 8.88671875 C20.72804688 8.92410156 21.35453125 8.96148437 22 9 C22 9.33 22 9.66 22 10 C20.37536158 10.05395478 18.75021459 10.09277195 17.125 10.125 C15.76761719 10.15980469 15.76761719 10.15980469 14.3828125 10.1953125 C12 10 12 10 10 8 C7.93125966 7.3574765 7.93125966 7.3574765 6 7 C6.66 8.32 7.32 9.64 8 11 C5.33869601 9.98244259 4.19483944 9.33315139 2.734375 6.8359375 C2.24710938 5.61777344 2.24710938 5.61777344 1.75 4.375 C1.41484375 3.55773438 1.0796875 2.74046875 0.734375 1.8984375 C0.49203125 1.27195313 0.2496875 0.64546875 0 0 Z " fill="#654F3F" transform="translate(47,49)"/>
<path d="M0 0 C0 1.98 0 3.96 0 6 C-2.33517159 6.75059087 -3.66228886 7.09210304 -6.0625 6.4375 C-6.701875 6.293125 -7.34125 6.14875 -8 6 C-8.99 6.66 -9.98 7.32 -11 8 C-11.66 7.67 -12.32 7.34 -13 7 C-13 6.34 -13 5.68 -13 5 C-11.21046815 4.16209211 -9.41830305 3.32980604 -7.625 2.5 C-6.62726562 2.0359375 -5.62953125 1.571875 -4.6015625 1.09375 C-2 0 -2 0 0 0 Z " fill="#192229" transform="translate(32,64)"/>
<path d="M0 0 C0.45890625 0.40992188 0.9178125 0.81984375 1.390625 1.2421875 C2.00421875 1.78101563 2.6178125 2.31984375 3.25 2.875 C3.85328125 3.40867188 4.4565625 3.94234375 5.078125 4.4921875 C6.97418746 5.9797487 8.81290005 7.00322436 11 8 C10.6875 9.875 10.6875 9.875 10 12 C9.01 12.66 8.02 13.32 7 14 C6.67 12.35 6.34 10.7 6 9 C5.34 9 4.68 9 4 9 C3.731875 8.401875 3.46375 7.80375 3.1875 7.1875 C2.01506533 5.02775192 0.80630718 3.64209744 -1 2 C-0.67 1.34 -0.34 0.68 0 0 Z " fill="#0C0A0A" transform="translate(50,57)"/>
<path d="M0 0 C2.475 0.495 2.475 0.495 5 1 C4.67 1.99 4.34 2.98 4 4 C4.66 4 5.32 4 6 4 C6 6.31 6 8.62 6 11 C4.68 11 3.36 11 2 11 C0.57741188 7.17679443 -0.24042276 4.08718695 0 0 Z " fill="#B58274" transform="translate(40,35)"/>
<path d="M0 0 C1.98 0 3.96 0 6 0 C5.01 0.33 4.02 0.66 3 1 C3 3.64 3 6.28 3 9 C4.98 9 6.96 9 9 9 C9 9.33 9 9.66 9 10 C5.7 10.33 2.4 10.66 -1 11 C-1.125 3.375 -1.125 3.375 0 0 Z " fill="#AA7E5E" transform="translate(49,20)"/>
<path d="M0 0 C0.33 0.66 0.66 1.32 1 2 C2.0725 1.95875 3.145 1.9175 4.25 1.875 C7.65747485 1.9885825 9.20739631 2.21273364 12 4 C12 4.99 12 5.98 12 7 C6.25 6.125 6.25 6.125 4 5 C4 5.66 4 6.32 4 7 C3.01 7 2.02 7 1 7 C0.67 4.69 0.34 2.38 0 0 Z " fill="#B98369" transform="translate(65,35)"/>
<path d="M0 0 C1.53515625 1.125 1.53515625 1.125 3 3 C2.99609375 5.8125 2.99609375 5.8125 2.4375 9 C2.27121094 10.051875 2.10492188 11.10375 1.93359375 12.1875 C0.87116973 15.38810794 -0.14116103 16.31626662 -3 18 C-2.69112547 15.56199034 -2.37805338 13.12464633 -2.0625 10.6875 C-1.97548828 9.99720703 -1.88847656 9.30691406 -1.79882812 8.59570312 C-1.40789865 5.59857712 -0.9584996 2.87549881 0 0 Z " fill="#0A0706" transform="translate(74,61)"/>
<path d="M0 0 C3.96 0 7.92 0 12 0 C11.67 1.32 11.34 2.64 11 4 C7.7 4 4.4 4 1 4 C0.67 2.68 0.34 1.36 0 0 Z " fill="#A17969" transform="translate(59,54)"/>
<path d="M0 0 C3.96 0.33 7.92 0.66 12 1 C11.01 2.485 11.01 2.485 10 4 C8.68 4 7.36 4 6 4 C6 4.66 6 5.32 6 6 C4.02 5.34 2.04 4.68 0 4 C0 2.68 0 1.36 0 0 Z " fill="#7D5748" transform="translate(55,45)"/>
<path d="M0 0 C1.23556641 0.01740234 1.23556641 0.01740234 2.49609375 0.03515625 C3.32238281 0.04417969 4.14867187 0.05320313 5 0.0625 C5.63808594 0.07410156 6.27617188 0.08570313 6.93359375 0.09765625 C6.60359375 0.75765625 6.27359375 1.41765625 5.93359375 2.09765625 C5.27359375 2.09765625 4.61359375 2.09765625 3.93359375 2.09765625 C3.27359375 3.41765625 2.61359375 4.73765625 1.93359375 6.09765625 C0.61359375 6.09765625 -0.70640625 6.09765625 -2.06640625 6.09765625 C-2.44859392 4.44150968 -2.78035727 2.77308601 -3.06640625 1.09765625 C-2.06640625 0.09765625 -2.06640625 0.09765625 0 0 Z " fill="#C8957E" transform="translate(53.06640625,37.90234375)"/>
<path d="M0 0 C9.85626008 -0.61176787 9.85626008 -0.61176787 13.6875 1.4375 C15.63782589 5.24527911 15.32270729 8.8048052 15 13 C13.68 12.67 12.36 12.34 11 12 C11.66 12 12.32 12 13 12 C12.87625 10.72125 12.7525 9.4425 12.625 8.125 C12.55539063 7.40570312 12.48578125 6.68640625 12.4140625 5.9453125 C12.13625251 3.77331755 12.13625251 3.77331755 10 2 C7.56747339 1.53837573 7.56747339 1.53837573 4.875 1.375 C3.96492188 1.30023437 3.05484375 1.22546875 2.1171875 1.1484375 C1.41851562 1.09945313 0.71984375 1.05046875 0 1 C0 0.67 0 0.34 0 0 Z " fill="#7F5F4A" transform="translate(61,16)"/>
<path d="M0 0 C0.66 0 1.32 0 2 0 C3.45 7.25 3.45 7.25 1.5 10.5 C-1.874553 12.5247318 -4.13500574 12.50101777 -8 12 C-8.66 11.01 -9.32 10.02 -10 9 C-7.03 9 -4.06 9 -1 9 C0.06546953 5.8035914 0.07427838 3.34252724 0 0 Z " fill="#BC8E76" transform="translate(68,20)"/>
<path d="M0 0 C0.66 0.33 1.32 0.66 2 1 C2 1.99 2 2.98 2 4 C2.99 4.33 3.98 4.66 5 5 C4.67 5.66 4.34 6.32 4 7 C3.34 7 2.68 7 2 7 C1.67 6.34 1.34 5.68 1 5 C-0.21693876 7.43387753 -0.31959896 9.41838846 -0.5625 12.125 C-0.68818359 13.49011719 -0.68818359 13.49011719 -0.81640625 14.8828125 C-0.87699219 15.58148438 -0.93757813 16.28015625 -1 17 C-3 15 -3 15 -3.046875 12.79296875 C-2.05825243 4.11650485 -2.05825243 4.11650485 0 0 Z " fill="#221A13" transform="translate(74,57)"/>
<path d="M0 0 C0.66 0.66 1.32 1.32 2 2 C1.69670231 5.84177074 0.47524576 8.09427672 -2 11 C-3.65 10.67 -5.3 10.34 -7 10 C-6.34 9.67 -5.68 9.34 -5 9 C-5 8.01 -5 7.02 -5 6 C-4.01 5.67 -3.02 5.34 -2 5 C-0.78130071 2.49552484 -0.78130071 2.49552484 0 0 Z " fill="#825F4A" transform="translate(75,44)"/>
<path d="M0 0 C4.455 0.99 4.455 0.99 9 2 C9 3.32 9 4.64 9 6 C6.1875 6.25 6.1875 6.25 3 6 C1.125 4.125 1.125 4.125 0 2 C0 1.34 0 0.68 0 0 Z " fill="#3D2919" transform="translate(57,58)"/>
<path d="M0 0 C0.66 0.33 1.32 0.66 2 1 C1.835 1.5775 1.67 2.155 1.5 2.75 C0.85537969 5.26664369 0.85537969 5.26664369 1 9 C-0.32 9 -1.64 9 -3 9 C-4.09658936 5.71023192 -3.79953138 4.28696233 -3 1 C-2.01 0.67 -1.02 0.34 0 0 Z " fill="#BF8D6E" transform="translate(55,20)"/>
<path d="M0 0 C0 0.66 0 1.32 0 2 C0.99 2.66 1.98 3.32 3 4 C3 4.66 3 5.32 3 6 C0.03 5.505 0.03 5.505 -3 5 C-3 4.67 -3 4.34 -3 4 C-4.98 3.34 -6.96 2.68 -9 2 C-9 1.67 -9 1.34 -9 1 C-5.94152152 0.45627049 -3.11227195 0 0 0 Z " fill="#654030" transform="translate(69,43)"/>
<path d="M0 0 C0 0.66 0 1.32 0 2 C2.31 2 4.62 2 7 2 C7 2.33 7 2.66 7 3 C5.93458984 3.18175781 5.93458984 3.18175781 4.84765625 3.3671875 C3.92855469 3.53476562 3.00945313 3.70234375 2.0625 3.875 C1.14597656 4.03742187 0.22945312 4.19984375 -0.71484375 4.3671875 C-1.46894531 4.57601562 -2.22304688 4.78484375 -3 5 C-3.33 5.66 -3.66 6.32 -4 7 C-4.66 7 -5.32 7 -6 7 C-5.37162381 3.35541809 -4.14650034 0 0 0 Z " fill="#936551" transform="translate(59,41)"/>
<path d="M0 0 C1.98 0 3.96 0 6 0 C6 1.65 6 3.3 6 5 C0.25 5.125 0.25 5.125 -2 4 C-1.34 2.68 -0.68 1.36 0 0 Z " fill="#533827" transform="translate(51,30)"/>
<path d="M0 0 C1.65 0 3.3 0 5 0 C5 1.65 5 3.3 5 5 C2.03 5 -0.94 5 -4 5 C-3.67 4.34 -3.34 3.68 -3 3 C-2.34 3 -1.68 3 -1 3 C-0.67 2.01 -0.34 1.02 0 0 Z " fill="#41291B" transform="translate(71,29)"/>
<path d="M0 0 C1.32 0.66 2.64 1.32 4 2 C3.67 2.99 3.34 3.98 3 5 C0.69 5 -1.62 5 -4 5 C-4.33 4.01 -4.66 3.02 -5 2 C-3.35 2 -1.7 2 0 2 C0 1.34 0 0.68 0 0 Z " fill="#150F09" transform="translate(67,10)"/>
<path d="M0 0 C0.33 0 0.66 0 1 0 C2.19876651 5.44893869 1.91360308 8.22169095 -1 13 C-1.99 12.67 -2.98 12.34 -4 12 C-3.34 11.34 -2.68 10.68 -2 10 C-1.61067967 8.01014051 -1.28112064 6.00800456 -1 4 C-0.68325425 2.66262906 -0.35729936 1.32711192 0 0 Z " fill="#6D503B" transform="translate(78,40)"/>
<path d="M0 0 C0.928125 0.20625 1.85625 0.4125 2.8125 0.625 C2 2.5625 2 2.5625 0.8125 4.625 C-0.1775 4.955 -1.1675 5.285 -2.1875 5.625 C-2.1875 4.965 -2.1875 4.305 -2.1875 3.625 C-3.5075 3.625 -4.8275 3.625 -6.1875 3.625 C-6.1875 2.965 -6.1875 2.305 -6.1875 1.625 C-3.1875 -0.375 -3.1875 -0.375 0 0 Z " fill="#161F25" transform="translate(45.1875,58.375)"/>
<path d="M0 0 C1.41778293 2.83556587 0.86257622 4.9908706 0.5625 8.125 C0.46066406 9.22070312 0.35882813 10.31640625 0.25390625 11.4453125 C0.17011719 12.28835937 0.08632813 13.13140625 0 14 C-1.65 13.67 -3.3 13.34 -5 13 C-4.34 12.67 -3.68 12.34 -3 12 C-2.34625258 9.45293768 -2.34625258 9.45293768 -1.9375 6.5 C-1.09465649 1.09465649 -1.09465649 1.09465649 0 0 Z " fill="#584335" transform="translate(47,20)"/>
<path d="M0 0 C2.64 0 5.28 0 8 0 C8.33 2.64 8.66 5.28 9 8 C6 6 6 6 5 3 C2.49552484 1.78130071 2.49552484 1.78130071 0 1 C0 0.67 0 0.34 0 0 Z " fill="#D19F84" transform="translate(60,20)"/>
<path d="M0 0 C0.99 0 1.98 0 3 0 C4.0625 2.375 4.0625 2.375 5 5 C4.67 5.66 4.34 6.32 4 7 C2.68 6.34 1.36 5.68 0 5 C0 3.35 0 1.7 0 0 Z " fill="#766051" transform="translate(67,71)"/>
<path d="M0 0 C0.99 0 1.98 0 3 0 C3.1875 3.375 3.1875 3.375 3 7 C2.01 7.66 1.02 8.32 0 9 C-1.10844919 5.67465243 -0.84454356 3.37817425 0 0 Z " fill="#2C2522" transform="translate(43,22)"/>
<path d="M0 0 C2.475 0.99 2.475 0.99 5 2 C5 2.99 5 3.98 5 5 C0 4 0 4 -5 3 C-5 2.67 -5 2.34 -5 2 C-3.35 2 -1.7 2 0 2 C0 1.34 0 0.68 0 0 Z " fill="#654637" transform="translate(57,30)"/>
<path d="M0 0 C1.32 0.33 2.64 0.66 4 1 C3.67 4.3 3.34 7.6 3 11 C3.99 11.33 4.98 11.66 6 12 C5.01 12.66 4.02 13.32 3 14 C1.46450769 10.92901538 1.5573183 7.70419623 1.28125 4.3125 C1.12863953 1.97731545 1.12863953 1.97731545 0 0 Z " fill="#3A2C24" transform="translate(75,19)"/>
<path d="M0 0 C0 2.33333333 0 4.66666667 0 7 C0.66 7.66 1.32 8.32 2 9 C1.01 10.485 1.01 10.485 0 12 C-0.66 12 -1.32 12 -2 12 C-2.05395478 10.37536158 -2.09277195 8.75021459 -2.125 7.125 C-2.14820313 6.22007813 -2.17140625 5.31515625 -2.1953125 4.3828125 C-2 2 -2 2 0 0 Z " fill="#162027" transform="translate(14,83)"/>
<path d="M0 0 C0.66 0 1.32 0 2 0 C2 0.66 2 1.32 2 2 C3.32 2.33 4.64 2.66 6 3 C2.09971775 5.60018816 -1.47434569 5.15085514 -6 5 C-6 4.67 -6 4.34 -6 4 C-4.35 4 -2.7 4 -1 4 C-0.67 2.68 -0.34 1.36 0 0 Z " fill="#412E23" transform="translate(55,14)"/>
<path d="M0 0 C4.95 0.99 4.95 0.99 10 2 C10 2.33 10 2.66 10 3 C8.88625 3.12375 7.7725 3.2475 6.625 3.375 C2.96896323 3.6465813 2.96896323 3.6465813 1 6 C0.67 4.02 0.34 2.04 0 0 Z " fill="#A2775E" transform="translate(48,35)"/>
<path d="M0 0 C0.66 0 1.32 0 2 0 C2.33 2.31 2.66 4.62 3 7 C2.34 7 1.68 7 1 7 C-0.625 5 -0.625 5 -2 3 C-1.34 2.01 -0.68 1.02 0 0 Z " fill="#151510" transform="translate(47,51)"/>
<path d="M0 0 C0.66 0 1.32 0 2 0 C2 2.97 2 5.94 2 9 C1.01 9 0.02 9 -1 9 C-0.67 6.03 -0.34 3.06 0 0 Z " fill="#CE977E" transform="translate(63,33)"/>
<path d="M0 0 C0.66 0 1.32 0 2 0 C2.66 2.64 3.32 5.28 4 8 C2.68 8.33 1.36 8.66 0 9 C0 6.03 0 3.06 0 0 Z " fill="#B28162" transform="translate(70,20)"/>
<path d="M0 0 C3 1 3 1 4 3 C4.039992 4.99960012 4.04346799 7.00047242 4 9 C3.34 9 2.68 9 2 9 C2.33 7.35 2.66 5.7 3 4 C2.01 4.33 1.02 4.66 0 5 C0 3.35 0 1.7 0 0 Z " fill="#100A08" transform="translate(62,67)"/>
<path d="M0 0 C0.33 0 0.66 0 1 0 C1.33 3.96 1.66 7.92 2 12 C1.01 12.495 1.01 12.495 0 13 C0 12.34 0 11.68 0 11 C-1.65 11 -3.3 11 -5 11 C-5 10.67 -5 10.34 -5 10 C-3.35 10 -1.7 10 0 10 C0 6.7 0 3.4 0 0 Z " fill="#5C4537" transform="translate(76,21)"/>
<path d="M0 0 C0.33 0.99 0.66 1.98 1 3 C1.99 3.33 2.98 3.66 4 4 C3.67 4.99 3.34 5.98 3 7 C3.66 7 4.32 7 5 7 C5 7.99 5 8.98 5 10 C2 9 2 9 0.8125 6.6875 C0 4 0 4 0 0 Z " fill="#A47861" transform="translate(50,41)"/>
<path d="M0 0 C0.33 0.99 0.66 1.98 1 3 C1.99 3.33 2.98 3.66 4 4 C5.1875 6.5625 5.1875 6.5625 6 9 C2.95507691 7.98502564 1.9701361 7.4178943 0 5 C-0.75 2.875 -0.75 2.875 -1 1 C-0.67 0.67 -0.34 0.34 0 0 Z " fill="#83634D" transform="translate(48,44)"/>
<path d="M0 0 C0.33 0.66 0.66 1.32 1 2 C1.99 2 2.98 2 4 2 C4 3.65 4 5.3 4 7 C3.01 7 2.02 7 1 7 C0.67 4.69 0.34 2.38 0 0 Z " fill="#AF7A64" transform="translate(65,35)"/>
<path d="M0 0 C0.33 0.99 0.66 1.98 1 3 C-0.9375 5.6875 -0.9375 5.6875 -3 8 C-3.99 7.34 -4.98 6.68 -6 6 C-5.34 6 -4.68 6 -4 6 C-4 5.01 -4 4.02 -4 3 C-3.01 2.67 -2.02 2.34 -1 2 C-0.67 1.34 -0.34 0.68 0 0 Z " fill="#936A57" transform="translate(74,47)"/>
<path d="M0 0 C0.66 0.33 1.32 0.66 2 1 C1.67 1.66 1.34 2.32 1 3 C1.99 3.33 2.98 3.66 4 4 C3.67 4.66 3.34 5.32 3 6 C1.68 5.67 0.36 5.34 -1 5 C-0.67 4.34 -0.34 3.68 0 3 C-0.99 2.67 -1.98 2.34 -3 2 C-2.01 2 -1.02 2 0 2 C0 1.34 0 0.68 0 0 Z " fill="#875E4C" transform="translate(69,40)"/>
<path d="M0 0 C0.33 0.66 0.66 1.32 1 2 C3.12576782 2.46651207 3.12576782 2.46651207 5.5625 2.625 C6.38878906 2.69976563 7.21507812 2.77453125 8.06640625 2.8515625 C8.70449219 2.90054687 9.34257813 2.94953125 10 3 C10 3.33 10 3.66 10 4 C6.7 4.33 3.4 4.66 0 5 C0 3.35 0 1.7 0 0 Z " fill="#956F56" transform="translate(48,26)"/>
<path d="M0 0 C1.65 0.99 3.3 1.98 5 3 C4.34 4.32 3.68 5.64 3 7 C1.25372522 4.38058783 0.61277612 2.96175123 0 0 Z " fill="#090F14" transform="translate(60,75)"/>
<path d="M0 0 C0.33 0 0.66 0 1 0 C1.33 2.64 1.66 5.28 2 8 C1.34 7.67 0.68 7.34 0 7 C0 6.34 0 5.68 0 5 C-0.99 5 -1.98 5 -3 5 C-2.67 4.01 -2.34 3.02 -2 2 C-1.34 2 -0.68 2 0 2 C0 1.34 0 0.68 0 0 Z " fill="#5B3F2C" transform="translate(70,66)"/>
<path d="M0 0 C1.9375 0.8125 1.9375 0.8125 4 2 C4.33 2.99 4.66 3.98 5 5 C4.67 5.66 4.34 6.32 4 7 C3.01 6.67 2.02 6.34 1 6 C1.33 5.01 1.66 4.02 2 3 C1.34 2.67 0.68 2.34 0 2 C0 1.34 0 0.68 0 0 Z " fill="#784E39" transform="translate(70,41)"/>
<path d="M0 0 C0.66 0 1.32 0 2 0 C2 1.98 2 3.96 2 6 C1.01 6 0.02 6 -1 6 C-1.042721 4.33388095 -1.04063832 2.66617115 -1 1 C-0.67 0.67 -0.34 0.34 0 0 Z " fill="#9E715F" transform="translate(80,33)"/>
</svg>
