<svg width="127" height="126" viewBox="0 0 127 126" fill="none" xmlns="http://www.w3.org/2000/svg">
  <!-- Background Circle with Gradient -->
  <circle cx="63.5" cy="62.5" r="62.5" fill="url(#gradient)" />
  
  <!-- Gear Icon -->
  <g fill="none" stroke="#577CFF" stroke-width="4">
    <circle cx="63.5" cy="62.5" r="20" />
    <path d="M50.5 62.5L46.5 56.5" />
    <path d="M76.5 62.5L80.5 56.5" />
    <path d="M63.5 42.5L63.5 48.5" />
    <path d="M63.5 76.5L63.5 82.5" />
    <path d="M54.5 70.5L50.5 74.5" />
    <path d="M72.5 70.5L76.5 74.5" />
    <path d="M50.5 70.5L46.5 66.5" />
    <path d="M76.5 70.5L80.5 66.5" />
  </g>
  
  <!-- Circuit Lines -->
  <path d="M63.5 42.5L63.5 27" stroke="#AFC1DC" stroke-width="2" />
  <path d="M63.5 82.5L63.5 97" stroke="#AFC1DC" stroke-width="2" />
  <path d="M50.5 56.5L45 45" stroke="#AFC1DC" stroke-width="2" />
  <path d="M76.5 56.5L82 45" stroke="#AFC1DC" stroke-width="2" />
  <path d="M45 45L35 60" stroke="#AFC1DC" stroke-width="2" />
  <path d="M82 45L92 60" stroke="#AFC1DC" stroke-width="2" />
  <path d="M35 60L20 50" stroke="#AFC1DC" stroke-width="2" />
  <path d="M92 60L107 50" stroke="#AFC1DC" stroke-width="2" />

  <!-- Central Digital Connection -->
  <circle cx="63.5" cy="62.5" r="3" fill="#577CFF" />
  
  <!-- Final Touch: Small Circles on the Circuit Lines -->
  <circle cx="45" cy="45" r="2" fill="#FF9494" />
  <circle cx="82" cy="45" r="2" fill="#FF9494" />
  <circle cx="35" cy="60" r="2" fill="#FF9494" />
  <circle cx="92" cy="60" r="2" fill="#FF9494" />
  <circle cx="20" cy="50" r="2" fill="#FF9494" />
  <circle cx="107" cy="50" r="2" fill="#FF9494" />

  <!-- Gradient Definition -->
  <defs>
    <linearGradient id="gradient" x1="63.5" y1="0" x2="63.5" y2="125" gradientUnits="userSpaceOnUse">
      <stop stop-color="#AFC1DC" />
      <stop offset="1" stop-color="#E2E5ED" />
    </linearGradient>
  </defs>
</svg>
